<?xml version="1.0" encoding="utf-8"?>
<!-- Generator: Adobe Illustrator 26.3.1, SVG Export Plug-In . SVG Version: 6.00 Build 0)  -->
<svg version="1.0" id="圖層_1" xmlns="http://www.w3.org/2000/svg" xmlns:xlink="http://www.w3.org/1999/xlink" x="0px" y="0px"
	 viewBox="0 0 100 100" style="enable-background:new 0 0 100 100;" xml:space="preserve">
<style type="text/css">
	.st0{fill:#222222;}
</style>
<g>
	<path class="st0" d="M91.6,56.1C91.6,56.1,91.6,56.1,91.6,56.1c0-3.3,0-6.6,0-9.8c0-7.3,0-14.5-0.1-21.8c0-1-0.2-2-0.5-3
		c-0.9-2.7-2.4-4.9-4.6-6.7c-2.4-1.9-5.2-2.9-8.3-2.9c-9.4,0-18.7,0-28.1,0c-9.3,0-18.5,0-27.8,0c-0.6,0-1.2,0-1.7,0.1
		c-0.4,0-0.8,0.1-1.2,0.1c-1.3,0.3-2.5,0.8-3.7,1.4c-2.2,1.2-4,2.9-5.3,5c-1.3,2.1-2,4.4-2,6.8c0,13.2,0,26.4,0,39.6
		c0,0.8,0,1.7,0.2,2.5c0.3,1.3,0.8,2.6,1.4,3.8c1.3,2.3,3,4.2,5.4,5.5c2.2,1.2,4.5,1.8,7,1.8c11.2,0,22.4,0,33.6,0
		c2.7,9.1,11,15.7,21,15.7c12.1,0,21.9-9.8,21.9-21.9C98.8,65.9,96,60.1,91.6,56.1z M90.3,55c-0.1,0-0.1-0.1-0.2-0.1
		C90.2,54.9,90.3,55,90.3,55z M88.8,54c-0.1-0.1-0.2-0.1-0.2-0.2C88.7,53.8,88.8,53.9,88.8,54z M87.2,53c-0.1,0-0.1-0.1-0.2-0.1
		C87.1,52.9,87.1,52.9,87.2,53z M16.1,21c1.1-1.5,2.6-2.4,4.5-2.7c0.4-0.1,0.9-0.1,1.3-0.1c9.4,0,18.7,0,28.1,0c9.4,0,18.8,0,28.2,0
		c2.1,0,3.8,0.8,5.2,2.3c1,1,1.6,2.3,1.9,3.7c0.2,1,0.2,1.9,0,2.9c-0.1,0.7-0.5,1.1-1.1,1.4c-1.7,0.9-3.5,1.9-5.2,2.8
		c-2.4,1.3-4.9,2.6-7.3,4c-2.5,1.4-5,2.7-7.5,4.1c-2,1.1-4.1,2.2-6.1,3.3c-2.3,1.2-4.5,2.4-6.8,3.7c-1,0.5-1.9,0.5-2.8,0
		c-3-1.6-6-3.3-8.9-4.9c-2.2-1.2-4.4-2.4-6.6-3.5c-3-1.6-6-3.3-9.1-4.9c-2.7-1.5-5.4-2.9-8.1-4.3c-1-0.5-1.3-1.3-1.3-2.4
		C14.5,24.2,15,22.5,16.1,21z M21.8,72.3c-2,0-3.8-0.8-5.2-2.3c-1-1-1.7-2.3-1.9-3.7c-0.1-0.7-0.2-1.4-0.2-2.1c0-9,0-18,0-27
		c0-0.4,0-0.8,0.1-1.1c0.1-0.6,0.5-0.8,1.1-0.6c0.5,0.2,0.9,0.4,1.3,0.6c2.6,1.4,5.2,2.8,7.8,4.2c2.2,1.2,4.3,2.4,6.5,3.5
		c3.6,1.9,7.1,3.8,10.7,5.8c2.1,1.1,4.2,2.2,6.2,3.4c1.1,0.6,2.2,0.6,3.3,0c2.3-1.2,4.7-2.5,7-3.7c3.1-1.7,6.3-3.4,9.4-5.1
		c3.1-1.7,6.3-3.4,9.4-5.1c2-1.1,4.1-2.2,6.1-3.3c0.2-0.1,0.4-0.2,0.6-0.3c0.9-0.3,1.2,0.2,1.3,0.9c0.1,0.5,0.1,1,0.1,1.4
		c0,4.8,0,9.5,0,14.3c-2.6-1.1-5.5-1.7-8.5-1.7c-12.1,0-21.9,9.8-21.9,21.9c-1.7,0-3.4,0-5.1,0C40.6,72.3,31.2,72.3,21.8,72.3z
		 M55.6,77C55.6,77,55.6,77,55.6,77C55.6,77,55.6,77,55.6,77z M55.1,73.7c0,0.1,0,0.2,0,0.3C55.1,74,55.1,73.8,55.1,73.7z
		 M55.3,75.4C55.3,75.4,55.3,75.4,55.3,75.4C55.3,75.4,55.3,75.4,55.3,75.4z M87.5,86.1c-2.6,1.5-5.8,2.2-9.6,2.2
		c-3.7,0-6.8-0.6-9.5-1.9c-2.7-1.2-4.6-3.1-5.9-5.5c-1.3-2.4-1.9-5-1.9-7.9c0-3.1,0.7-6,2.2-8.7c1.5-2.7,3.5-4.7,6-6
		c2.6-1.3,5.5-2,8.8-2c2.8,0,5.3,0.5,7.4,1.6s3.8,2.6,5,4.6c1.1,2,1.7,4.2,1.7,6.5c0,2.8-0.9,5.4-2.6,7.7c-2.2,2.9-5,4.3-8.4,4.3
		c-0.9,0-1.6-0.2-2.1-0.5s-0.8-0.8-0.9-1.4c-1.3,1.3-2.8,1.9-4.5,1.9c-1.8,0-3.4-0.6-4.6-1.9c-1.2-1.3-1.8-3-1.8-5.1
		c0-2.6,0.7-5,2.2-7.1c1.8-2.6,4-3.9,6.8-3.9c2,0,3.4,0.8,4.4,2.3l0.4-1.8H85l-2.5,11.9c-0.2,0.8-0.2,1.2-0.2,1.5
		c0,0.3,0.1,0.5,0.2,0.6c0.1,0.1,0.3,0.2,0.5,0.2c0.5,0,1.2-0.3,2.1-1c1.1-0.8,2-2,2.7-3.4s1-2.9,1-4.4c0-2.7-1-5-3-6.8
		c-2-1.8-4.7-2.7-8.3-2.7c-3,0-5.5,0.6-7.6,1.8c-2.1,1.2-3.7,2.9-4.7,5.2c-1.1,2.2-1.6,4.5-1.6,6.9c0,2.3,0.6,4.5,1.8,6.4
		c1.2,1.9,2.8,3.3,5,4.2c2.1,0.9,4.6,1.3,7.3,1.3c2.6,0,4.9-0.4,6.8-1.1c1.9-0.7,3.4-1.8,4.6-3.3h3.5C91.5,83.1,89.8,84.9,87.5,86.1
		z"/>
	<path class="st0" d="M76.2,66.2c-1,0-1.8,0.4-2.6,1.1c-0.8,0.7-1.4,1.8-1.8,3.1S71.1,73,71.1,74c0,1.4,0.3,2.4,0.9,3.1
		c0.6,0.7,1.3,1,2.1,1c0.6,0,1.2-0.2,1.8-0.5c0.4-0.2,0.8-0.6,1.2-1c0.6-0.7,1.1-1.7,1.5-3c0.4-1.3,0.6-2.5,0.6-3.6
		c0-1.3-0.3-2.2-0.9-2.9C77.8,66.5,77.1,66.2,76.2,66.2z"/>
</g>
</svg>
