<?xml version="1.0" encoding="utf-8"?>
<!-- Generator: Adobe Illustrator 26.3.1, SVG Export Plug-In . SVG Version: 6.00 Build 0)  -->
<svg version="1.0" id="圖層_1" xmlns="http://www.w3.org/2000/svg" xmlns:xlink="http://www.w3.org/1999/xlink" x="0px" y="0px"
	 viewBox="0 0 16 16" style="enable-background:new 0 0 16 16;" xml:space="preserve">
<style type="text/css">
	.st0{fill:#222222;}
</style>
<path class="st0" d="M4,1.5C2.6,1.5,1.5,2.6,1.5,4v8c0,1.4,1.1,2.5,2.5,2.5h8c1.4,0,2.5-1.1,2.5-2.5V4c0-1.4-1.1-2.5-2.5-2.5H4z
	 M4,2.5h8c0.8,0,1.5,0.7,1.5,1.5v8c0,0.8-0.7,1.5-1.5,1.5h-1.6v-4h1.4L12,7.9h-1.6v-1c0-0.5,0.1-0.8,0.8-0.8h0.9V4.6
	c-0.1,0-0.7-0.1-1.3-0.1c-1.2,0-2.1,0.7-2.1,2.1v1.2l-1.2,0v1.6l1.2,0v4H4c-0.8,0-1.5-0.7-1.5-1.5V4C2.5,3.2,3.2,2.5,4,2.5z"/>
</svg>
