<?xml version="1.0" encoding="utf-8"?>
<!-- Generator: Adobe Illustrator 24.2.3, SVG Export Plug-In . SVG Version: 6.00 Build 0)  -->
<svg version="1.1" id="圖層_1" xmlns="http://www.w3.org/2000/svg" xmlns:xlink="http://www.w3.org/1999/xlink" x="0px" y="0px"
	 viewBox="0 0 117.4 117.4" style="enable-background:new 0 0 117.4 117.4;" xml:space="preserve">
<style type="text/css">
	.st0{fill:#FFFFFF;}
	.st1{fill:none;}
	.st2{fill:#AA020B;}
</style>
<g>
	<ellipse id="Ellipse_59" class="st0" cx="58.6" cy="58.9" rx="58.5" ry="58"/>
	<g id="_089-3" transform="translate(0 117.372) rotate(-90)">
		<path id="Path_734" class="st1" d="M58.7,0c32.4,0,58.7,26.3,58.7,58.7s-26.3,58.7-58.7,58.7S0,91.1,0,58.7C0,26.3,26.3,0,58.7,0
			C58.7,0,58.7,0,58.7,0z"/>
		<path id="Path_735" class="st2" d="M95.6,21.8c20.4,20.3,20.4,53.3,0.1,73.7c0,0,0,0-0.1,0.1c-8.9,9-20.8,14.4-33.4,15.2v6.6
			c32.4-1.9,57-29.7,55.1-62C115.5,25.5,91.8,1.8,62.1,0.1v6.6C74.7,7.4,86.6,12.8,95.6,21.8z M21.8,95.6
			c-20.4-20.3-20.4-53.3,0-73.7c0,0,0,0,0,0c8.4-8.5,19.6-13.8,31.5-15V0.3c-32.3,3-56,31.6-53,63.8c2.6,28.1,24.9,50.4,53,53v-6.6
			C41.4,109.3,30.2,104,21.8,95.6z"/>
	</g>
	<circle id="Ellipse_62" cx="58.8" cy="58.5" r="42.4"/>
	<circle id="Ellipse_63" class="st0" cx="32.8" cy="42.5" r="3.3"/>
	<circle id="Ellipse_64" class="st0" cx="65.4" cy="42.5" r="3.3"/>
	<g id="Path_733" transform="translate(32.835 50.656)">
		<path id="Path_736" class="st1" d="M29.3,3.3c0,7.2-5.8,13-13,13c-7.2,0-13-5.8-13-13H29.3z"/>
		<path id="Path_737" class="st0" d="M3.3,3.3c0,7.2,5.8,13,13,13s13-5.8,13-13H3.3 M0,0h32.6v3.3c0,9-7.3,16.3-16.3,16.3
			C7.3,19.6,0,12.3,0,3.3V0z"/>
	</g>
</g>
</svg>
