<?xml version="1.0" encoding="utf-8"?>
<!-- Generator: Adobe Illustrator 26.3.1, SVG Export Plug-In . SVG Version: 6.00 Build 0)  -->
<svg version="1.0" id="圖層_1" xmlns="http://www.w3.org/2000/svg" xmlns:xlink="http://www.w3.org/1999/xlink" x="0px" y="0px"
	 viewBox="0 0 48 48" style="enable-background:new 0 0 48 48;" xml:space="preserve">
<style type="text/css">
	.st0{fill:#222222;}
</style>
<g>
	<circle class="st0" cx="34" cy="14" r="2"/>
	<path class="st0" d="M31.5,5h-15C10.2,5,5,10.2,5,16.5v15C5,37.8,10.2,43,16.5,43h15C37.8,43,43,37.8,43,31.5v-15
		C43,10.2,37.8,5,31.5,5z M40,31.5c0,4.7-3.8,8.5-8.5,8.5h-15C11.8,40,8,36.2,8,31.5v-15C8,11.8,11.8,8,16.5,8h15
		c4.7,0,8.5,3.8,8.5,8.5V31.5z"/>
	<path class="st0" d="M24,14c-5.5,0-10,4.5-10,10s4.5,10,10,10s10-4.5,10-10S29.5,14,24,14z M24,31c-3.9,0-7-3.1-7-7s3.1-7,7-7
		s7,3.1,7,7S27.9,31,24,31z"/>
</g>
</svg>
