<?xml version="1.0" encoding="utf-8"?>
<!-- Generator: Adobe Illustrator 26.3.1, SVG Export Plug-In . SVG Version: 6.00 Build 0)  -->
<svg version="1.0" id="圖層_1" xmlns="http://www.w3.org/2000/svg" xmlns:xlink="http://www.w3.org/1999/xlink" x="0px" y="0px"
	 viewBox="0 0 48 48" style="enable-background:new 0 0 48 48;" xml:space="preserve">
<style type="text/css">
	.st0{fill:#222222;}
</style>
<path class="st0" d="M24,4C12.6,4,3,11.6,3,21.2c0,8.6,7.6,15.6,17.5,17c0.2,0,0.5,0.1,0.6,0.2c0,0.1,0,0.5,0,0.8v0
	c0,0.1-0.2,1.3-0.3,1.6l0,0c-0.1,0.4-0.3,1.2,0.4,2.2c0.3,0.5,1.1,0.9,1.8,1c0.7,0,1.2-0.2,1.9-0.6c4.5-2.5,9.5-5.3,13.4-8.9
	S45,26.6,45,21.2C45,11.6,35.4,4,24,4z M24,7c10.1,0,18,6.6,18,14.2c0,4.3-2.3,7.9-5.8,11.1c-3.4,3.1-7.9,5.7-12.3,8.1
	c0.1-0.3,0.1-0.8,0.1-0.8l0,0l0,0c0.1-0.6,0.3-1.4-0.2-2.5l0,0v0c-0.3-0.8-1-1.2-1.4-1.4s-1-0.4-1.3-0.4l-0.1,0l-0.1,0
	c-8.8-1.2-15-7.2-15-14C6,13.6,13.9,7,24,7z M19.3,16.1c-0.6,0-1,0.5-1,1v7.7c0,0.6,0.5,1,1,1c0.6,0,1-0.5,1-1v-7.7
	C20.4,16.6,19.9,16.1,19.3,16.1z M22.8,16.1c-0.1,0-0.2,0-0.3,0.1c-0.4,0.1-0.7,0.5-0.7,1v7.7c0,0.6,0.5,1,1,1c0.6,0,1-0.5,1-1v-4.8
	l4,5.4c0.2,0.3,0.5,0.4,0.8,0.4c0.1,0,0.2,0,0.3-0.1c0.4-0.1,0.7-0.5,0.7-1v-7.7c0-0.6-0.5-1-1-1s-1,0.5-1,1v4.8l-4-5.4
	C23.5,16.3,23.2,16.1,22.8,16.1z M12.5,16.1c-0.6,0-1,0.5-1,1v7.7c0,0.6,0.5,1,1,1h3.9c0.6,0,1-0.5,1-1c0-0.6-0.5-1-1-1h-2.9v-6.7
	C13.5,16.6,13,16.1,12.5,16.1z M32.1,16.1c-0.6,0-1,0.5-1,1v0V21v0v0v3.8c0,0.6,0.5,1,1,1H36c0.6,0,1-0.5,1-1s-0.5-1-1-1h-2.9V22H36
	c0.6,0,1-0.5,1-1c0-0.6-0.5-1-1-1v0h-2.9v-1.8H36c0.6,0,1-0.5,1-1s-0.5-1-1-1H32.1z"/>
</svg>
